HIERARCHY
ROOT Hips
{
  OFFSET 0 0 0
  CHANNELS 6 Xposition Yposition Zposition Zrotation Yrotation Xrotation
  JOINT LeftThigh
  {
    OFFSET 8.409438 0 -5.917753
    CHANNELS 3 Zrotation Yrotation Xrotation
    JOINT LeftLeg
    {
      OFFSET 0 0 -42.358652
      CHANNELS 3 Zrotation Yrotation Xrotation
      JOINT LeftFoot
      {
        OFFSET 0 0 -39.357303
        CHANNELS 3 Zrotation Yrotation Xrotation
      }
    }
  }
  JOINT RightThigh
  {
    OFFSET -8.409438 0 -5.917753
    CHANNELS 3 Zrotation Yrotation Xrotation
    JOINT RightLeg
    {
      OFFSET 0 0 -42.358652
      CHANNELS 3 Zrotation Yrotation Xrotation
      JOINT RightFoot
      {
        OFFSET 0 0 -39.357303
        CHANNELS 3 Zrotation Yrotation Xrotation
      }
    }
  }
  JOINT SpineLow
  {
    OFFSET 0 0 4.719101
    CHANNELS 3 Zrotation Yrotation Xrotation
    JOINT SpineMid
    {
      OFFSET 0 0 12.899191
      CHANNELS 3 Zrotation Yrotation Xrotation
      JOINT Chest
      {
        OFFSET 0 0 12.899191
        CHANNELS 3 Zrotation Yrotation Xrotation
        JOINT LeftShoulder
        {
          OFFSET 7.550562 1.41573 9.438202
          CHANNELS 3 Zrotation Yrotation Xrotation
          JOINT LeftArm
          {
            OFFSET 9.155056 0 4.247191
            CHANNELS 3 Zrotation Yrotation Xrotation
            JOINT LeftForearm
            {
              OFFSET 0 0 25.771955
              CHANNELS 3 Zrotation Yrotation Xrotation
              JOINT LeftHand
              {
                OFFSET 0 0 25.197169
                CHANNELS 3 Zrotation Yrotation Xrotation
              }
            }
          }
        }
        JOINT RightShoulder
        {
          OFFSET -7.550562 1.41573 9.438202
          CHANNELS 3 Zrotation Yrotation Xrotation
          JOINT RightArm
          {
            OFFSET -9.155056 0 4.247191
            CHANNELS 3 Zrotation Yrotation Xrotation
            JOINT RightForearm
            {
              OFFSET 0 0 -25.771955
              CHANNELS 3 Zrotation Yrotation Xrotation
              JOINT RightHand
              {
                OFFSET 0 0 -25.197169
                CHANNELS 3 Zrotation Yrotation Xrotation
              }
            }
          }
        }
        JOINT Neck
        {
          OFFSET 0 0 15.101124
          CHANNELS 3 Zrotation Yrotation Xrotation
          JOINT Head
          {
            OFFSET 0 0 11.325843
            CHANNELS 3 Zrotation Yrotation Xrotation
            End Site
            {
              OFFSET 0 0 14.157303
            }
          }
        }
      }
    }
  }
}
MOTION
Frames: 17
Frame Time: 0.0
0.0  93.25843  0.0  18.004251  -16.810134  -122.584213  50.170995  -16.474946  -97.776002  8.35881  23.251906  79.909393  3.09358  -6.185287  1.906779  -10.287008  11.014512  4.977335  14.956343  9.943654  27.923399  9.905832  4.629127  2.591815  2.257598  0.811112  3.886842  6.284302  1.846231  10.691965  6.284302  1.846231  10.691965  -20.360606  24.438926  5.51007  -157.373625  62.981816  -111.497118  -32.791743  14.933404  87.37957  69.179365  -29.714424  -10.356159  1.092088  -10.434846  17.783355  111.933957  36.367642  44.62213  -12.351861  -19.240152  -116.900802  51.003986  3.439231  -6.669409  4.308011  4.523478  13.025675  3.13441  3.486461  9.732826  
0.0  93.25843  0.0  18.015666  -16.311057  -122.550715  49.30278  -15.50289  -97.853385  6.17894  22.846132  71.562396  3.820196  -6.88133  2.32033  -10.802352  11.170026  4.83056  15.240746  10.197881  28.209  9.84607  4.707759  2.467293  2.15389  0.79627  3.863937  5.998633  1.82474  10.625497  5.998633  1.82474  10.625497  -20.303359  24.599985  5.640565  -157.389204  62.958793  -111.745593  -32.906102  15.032803  87.193815  68.784635  -29.891448  -10.149227  1.015436  -10.378919  17.814787  111.557446  36.885241  44.570124  -11.762738  -19.627042  -117.181929  50.558631  3.516633  -6.454861  4.28762  4.726029  13.134255  3.113803  3.638817  9.812469  
0.0  93.25843  0.0  17.857709  -15.891956  -122.370515  47.951971  -14.327154  -97.371105  3.170765  21.60622  62.644354  4.19278  -7.30701  2.755582  -10.860532  11.018676  4.751155  15.088781  10.409708  28.380232  9.876323  4.756252  2.453028  2.050208  0.757132  3.828886  5.708825  1.737935  10.523686  5.708825  1.737935  10.523686  -20.223154  24.718019  5.767724  -157.488003  62.895433  -111.870099  -33.025544  15.2881  87.053938  68.679044  -29.9866  -10.145674  1.087092  -10.310428  17.798527  111.08022  37.278467  44.317022  -11.26415  -20.015506  -117.334359  50.072335  3.605668  -6.319614  4.278435  4.920042  13.191517  3.102114  3.784629  9.853626  
0.0  93.25843  0.0  17.438104  -15.220022  -121.774577  46.180093  -13.041488  -96.527274  0.239875  19.181096  53.746018  3.830721  -7.265988  3.011114  -10.859585  10.599849  4.504145  14.942499  10.497038  28.560067  9.431512  4.663976  2.37412  1.919629  0.700712  3.775191  5.342633  1.609502  10.369172  5.342633  1.609503  10.369172  -20.156302  24.796917  5.822688  -157.616386  62.812542  -111.940213  -33.342992  15.007483  86.501153  67.774058  -30.39637  -9.613261  1.075793  -10.193416  17.605464  110.026863  38.263068  44.000957  -10.083339  -20.652171  -117.843555  49.546723  3.502996  -6.386211  4.121946  5.095057  13.066855  2.981822  3.911687  9.759777  
0.0  93.25843  0.0  17.103049  -14.970613  -121.447092  45.128616  -12.896914  -95.381617  -0.841708  16.157526  45.777331  2.662381  -6.977701  3.004849  -10.32958  10.068522  4.537116  14.613084  10.365839  28.646498  9.188863  4.694347  2.425659  1.85588  0.643408  3.754626  5.159347  1.465063  10.306904  5.159346  1.465064  10.306903  -20.190885  24.79549  5.863443  -157.704381  62.741963  -111.97441  -33.395262  15.039793  86.494589  67.683939  -30.43692  -9.646808  1.184333  -10.140799  17.51798  109.618061  38.663635  43.680315  -9.659164  -21.177744  -118.025344  49.224196  3.494726  -6.456328  4.020414  5.185835  12.907948  2.904969  3.97653  9.640659  
0.0  93.25843  0.0  16.838248  -14.897731  -121.156144  44.864838  -14.394704  -94.392213  0.333519  14.069786  39.305512  1.541578  -6.819286  2.857936  -9.84049  9.569105  4.507387  14.274093  10.226351  28.732506  9.079312  4.776742  2.472051  1.839597  0.581094  3.74491  5.104966  1.298632  10.274971  5.104966  1.298632  10.274971  -20.288977  24.750232  5.868993  -157.971196  62.667283  -112.103771  -33.601248  14.715111  86.246717  67.229017  -30.611724  -9.379398  1.377021  -10.122284  17.57999  109.044113  39.437528  43.500806  -9.474987  -21.727713  -118.132244  48.717203  3.267714  -6.831559  3.703458  5.225149  12.622493  2.668808  3.997484  9.428984  
0.0  93.25843  0.0  16.638239  -14.946035  -120.992562  45.207918  -17.669152  -93.877073  2.624617  13.46348  35.355728  1.793918  -6.807116  2.241241  -9.671346  9.237393  4.435862  13.973862  10.167764  28.771966  9.073876  4.854655  2.52037  1.858808  0.517851  3.742706  5.14737  1.123552  10.264095  5.14737  1.123552  10.264095  -20.511721  24.768722  5.862554  -158.292611  62.606477  -112.342892  -33.578625  14.569851  86.338067  67.193231  -30.620716  -9.371805  1.27724  -10.036633  17.662913  109.049783  39.875282  43.352238  -9.447653  -22.274596  -118.142617  48.534389  3.20981  -7.045339  3.4951  5.257002  12.459045  2.513262  4.016077  9.307955  
0.0  93.25843  0.0  16.562915  -15.167988  -121.040642  46.091368  -21.930657  -93.926731  6.241301  13.191065  33.375313  2.343935  -6.657558  2.376392  -9.825989  9.228968  4.352521  13.828797  10.153185  28.815435  9.376663  5.01061  2.582559  1.886218  0.459704  3.751392  5.213078  0.960223  10.283416  5.213078  0.960223  10.283416  -20.647911  24.75042  5.873092  -158.720756  62.437216  -112.735668  -33.56035  14.349285  86.410837  67.131455  -30.646878  -9.303725  1.915787  -10.306002  18.382382  108.889644  40.816181  43.723872  -10.18295  -22.644434  -117.697995  48.095325  3.034621  -7.523302  3.306374  5.265117  12.324655  2.372711  4.017534  9.208754  
0.0  93.25843  0.0  16.561857  -15.415087  -121.168474  46.892908  -24.405479  -94.183223  9.086858  13.141006  33.701395  2.583597  -6.684593  2.684213  -10.476468  9.45639  4.08714  13.903053  10.210323  28.970096  9.749313  5.026248  2.559649  1.900096  0.407397  3.777275  5.242946  0.813526  10.349976  5.242946  0.813526  10.349976  -20.626955  24.794821  5.846954  -159.127408  62.171618  -113.112398  -33.365536  14.207918  86.618297  67.119407  -30.653807  -9.27153  1.884815  -10.220639  18.530509  109.249188  41.32218  43.81695  -10.381011  -23.106737  -117.466326  47.957814  3.080532  -7.679458  3.259578  5.306022  12.237152  2.337509  4.046785  9.143244  
0.0  93.25843  0.0  16.940109  -16.611818  -122.083933  47.882894  -24.374593  -93.889687  9.210488  13.100805  36.264343  2.563817  -6.788815  2.675167  -10.254121  9.650746  4.36409  14.033266  10.215953  29.189928  10.204181  5.09235  2.545501  2.034771  0.359695  3.883751  5.603206  0.653469  10.637795  5.603206  0.653469  10.637795  -20.446725  24.769708  5.831931  -159.58262  61.871386  -113.587639  -33.152445  14.175596  86.873942  67.24423  -30.62479  -9.336373  2.184227  -10.337562  18.772356  109.572099  41.797468  44.029211  -10.819533  -23.485553  -117.073095  47.647526  3.046885  -7.870092  3.167387  5.260126  12.120273  2.270328  4.009852  9.056781  
0.0  93.25843  0.0  16.989077  -16.858696  -122.268631  48.101428  -21.581596  -93.670998  6.941077  13.795336  40.078817  2.852349  -6.883543  2.694675  -10.895417  9.873508  4.052453  14.414787  10.132056  29.509374  10.53126  5.146709  2.542572  2.01297  0.332642  3.900788  5.539507  0.581876  10.681868  5.539507  0.581876  10.681868  -20.347296  24.841735  5.746731  -159.967911  61.641615  -114.132688  -32.962914  14.180706  87.090171  67.17875  -30.684981  -9.230876  2.275264  -10.424145  18.834644  109.715093  42.342024  44.123567  -10.687487  -24.009079  -116.844325  47.345902  3.074874  -8.00275  3.265537  5.253603  12.15941  2.343727  4.007133  9.085338  
0.0  93.25843  0.0  17.012834  -17.061763  -122.423759  48.630499  -18.439448  -93.186668  4.33452  15.143865  44.568927  3.319724  -7.025946  2.789644  -11.286609  9.951912  3.883729  14.85646  9.942238  29.79776  10.755673  5.099545  2.547821  1.99151  0.329091  3.937157  5.480634  0.572645  10.780789  5.480634  0.572645  10.780789  -20.406379  24.835895  5.535067  -160.386087  61.611022  -114.438988  -32.845256  14.283391  87.274002  67.468302  -30.617423  -9.374169  2.384935  -10.649829  18.721527  109.631684  42.979351  44.096749  -10.462526  -24.608683  -116.584493  46.952361  3.025719  -8.250481  3.314795  5.16188  12.11709  2.382913  3.93905  9.053925  
0.0  93.25843  0.0  17.017306  -17.031995  -122.407363  48.827877  -15.803833  -92.585786  2.382894  16.442502  49.729409  3.808791  -7.12032  2.798358  -11.54872  9.985272  3.733874  15.143848  9.751562  29.962636  10.847445  5.176246  2.546231  1.928516  0.353434  3.943746  5.312998  0.648664  10.800465  5.312998  0.648664  10.800464  -20.397115  24.879296  5.445508  -160.496211  61.624297  -114.679869  -32.783622  14.289969  87.285267  67.402699  -30.697792  -9.294687  2.578141  -10.876184  18.649279  109.196468  43.729226  43.836719  -9.873377  -25.317882  -116.447791  46.764685  3.046128  -8.453396  3.43598  5.045155  12.139464  2.476013  3.85401  9.07063  
0.0  93.25843  0.0  16.855083  -16.798374  -122.174111  48.680697  -14.144103  -92.089464  1.348989  17.680145  55.342383  4.45007  -7.021676  2.760128  -11.762233  9.859944  3.586111  15.233283  9.605623  30.022817  10.869979  5.217964  2.554486  1.839101  0.374304  3.931135  5.072668  0.721066  10.767087  5.072668  0.721066  10.767087  -20.226455  24.964733  5.432577  -160.776708  61.739222  -114.807786  -32.590678  14.472468  87.374713  67.744718  -30.61563  -9.539008  2.772298  -11.048472  18.54417  108.364918  44.512144  43.232943  -9.315426  -25.946714  -116.259888  46.63463  3.07819  -8.642262  3.501199  4.90144  12.155664  2.527763  3.747571  9.083408  
0.0  93.25843  0.0  16.479876  -16.444247  -121.708238  48.4816  -13.732387  -91.654724  1.483361  19.068963  61.029003  5.241276  -6.696118  2.735674  -11.876366  9.490837  3.401195  15.074699  9.539243  30.025583  10.836692  5.292394  2.555845  1.736787  0.372196  3.892649  4.793197  0.734787  10.661  4.793197  0.734787  10.661  -20.278483  24.973815  5.252441  -161.204798  61.801376  -115.200331  -32.579592  14.360109  87.067167  67.745255  -30.63564  -9.541683  2.923167  -11.122079  18.437537  107.179527  45.215099  42.291502  -8.869747  -26.420894  -116.067777  46.52069  3.115483  -8.736187  3.511476  4.780012  12.189431  2.537722  3.656867  9.109615  
0.0  93.25843  0.0  15.87641  -15.974583  -121.056471  48.369528  -14.628178  -91.27435  3.054381  20.715012  66.661874  6.08246  -6.288904  2.785286  -11.934213  8.836096  3.220725  14.720382  9.455378  30.01382  10.52401  5.35587  2.450756  1.679016  0.339205  3.819745  4.629904  0.659378  10.458985  4.629903  0.659378  10.458984  -20.548054  24.936984  5.202406  -161.982202  61.882641  -115.813656  -32.727843  13.856122  86.373597  67.313575  -30.835379  -9.333045  2.700014  -11.222668  18.410656  105.613884  45.823984  41.044426  -8.536262  -26.760582  -115.875366  46.338859  3.118903  -8.785615  3.271557  4.617011  12.287653  2.360444  3.530307  9.186309  
0.0  93.25843  0.0  15.09326  -15.371392  -120.243933  48.119821  -16.282025  -90.7874  5.567556  22.271663  72.19301  6.760428  -5.791191  2.831465  -12.006868  8.02481  2.944019  14.378598  9.376515  30.009834  10.366209  5.444392  2.477879  1.618204  0.28007  3.742835  4.454389  0.513108  10.244334  4.454389  0.513108  10.244333  -20.924701  24.875848  5.092695  -162.921984  61.927476  -116.54791  -32.730756  13.646491  85.99287  67.339963  -30.837888  -9.504309  2.465853  -11.277272  18.288022  103.87932  46.249823  39.58282  -8.384969  -27.048095  -115.63373  46.136853  3.098274  -8.794585  2.936526  4.501682  12.328443  2.111284  3.437217  9.220164  
